<svg xmlns="http://www.w3.org/2000/svg" xmlns:xlink="http://www.w3.org/1999/xlink" class="icon" viewBox="0 0 1700 1024" width="332.03125" height="200"><path d="M1556.584 666.846c-29.077 60.292-60.079 76.862-124.326 66.706-41.264-6.52-63.82-30.68-69.914-78.893 24.908 0 49.496-0.64 73.976 0.214 16.463 0.642 23.946-4.917 23.304-22.235-0.962-25.015 0.214-50.244-0.641-75.259-0.748-20.952-12.187-34.635-33.567-35.063-42.974-0.962-85.948-0.32-133.092-0.32v212.84h-95.676V523.384h-96.532v-98.349h93.86v-83.49h-62.324v-96.104c20.525-0.962 40.195-2.03 63.285-3.1V208.99h96.425c-3.741 26.832 6.735 35.491 34.636 35.919 74.083 1.176 113.101 42.867 114.491 117.27 0.428 20.418 0.107 40.836 0.107 63.286 59.865-2.78 96.745 21.914 115.988 72.692v168.69z m-264.58-329.896c0 29.397-1.176 51.312 0.748 72.906 0.534 5.559 10.797 14.432 16.57 14.432 11.652 0.107 33.032-3.742 33.46-7.911 2.458-22.342 3.42-46.395-3.207-67.348-2.245-7.269-27.474-7.376-47.571-12.08zM357.368 208.882c-0.214 146.348-0.107 292.802-0.856 439.15-0.32 62.644-39.553 96.104-98.67 86.269-38.697-6.414-59.65-32.605-61.147-78.786h64.248V208.989c32.177-0.107 64.354-0.107 96.425-0.107z m409.751 0c-23.625 47.143-50.03 93.11-66.813 137.902 39.34-2.245 74.617-4.276 116.736-6.734-22.235 44.898-42.012 84.665-61.789 124.54-2.672 5.344-5.238 10.903-7.91 16.248-20.74 41.585-20.632 41.692 25.335 42.975 4.81 0.106 9.514 0.748 18.28 1.496-12.935 25.336-24.266 48.426-36.453 71.09-2.031 3.74-7.483 8.017-11.331 8.017-33.995-0.107-68.31 1.069-102.091-2.673-24.48-2.779-33.78-21.273-24.267-44.577 11.653-28.757 25.443-56.658 38.271-84.88 4.383-9.728 8.766-19.456 15.287-33.887-18.922 0-32.605 0.427-46.288-0.107-40.623-1.39-54.092-19.456-37.416-56.337 26.405-58.368 55.91-115.453 84.025-173.073h96.424zM62.107 576.408c6.093-33.78 13.79-67.455 17.852-101.45 5.132-42.76 7.163-85.84 10.69-130.74H192.1c-17.211 115.988 3.42 238.818-72.586 345.505C99.202 654.018 80.6 621.199 62 588.381c0.107-3.849 0.107-7.91 0.107-11.973z m1494.477-271.101c-21.701 37.736-56.016 38.698-92.79 32.925-11.011-47.891-3.1-79.32 22.449-90.972 23.839-10.904 45.647-2.245 70.34 28.008v30.039z" fill="#cdcdcd"></path><path d="M998.667 639.48c26.405 0 51.206 0.534 76.007-0.214 15.607-0.428 20.418 5.986 21.38 21.273 4.81 76.114 5.238 76.114-71.73 76.114H752.366c16.89-33.354 30.574-62.644 46.716-90.439 2.993-5.238 16.035-6.2 24.48-6.414 23.946-0.855 47.999-0.32 74.296-0.32V341.332h-61.468v-94.607h223.103v93.11H998.56c0.107 100.595 0.107 198.195 0.107 299.645zM425.891 343.364h95.035c4.597 58.688 2.566 117.805 15.287 173.607 14.966 65.316-8.873 115.88-39.767 167.407-46.181-40.409-71.303-161.42-70.555-341.014z m171.149 294.94h153.937c-17.21 33.673-30.787 61.147-45.646 87.98-2.78 4.917-10.904 9.62-16.677 9.727-44.898 0.748-89.797 0.428-141.323 0.428 19.563-38.805 35.598-70.341 49.709-98.135z" fill="#cdcdcd"></path></svg>